<svg width="106" height="43" viewBox="0 0 106 43" fill="none" xmlns="http://www.w3.org/2000/svg">
<path d="M39.88 20.24C39.24 20.24 38.66 20.12 38.14 19.88C37.6333 19.6267 37.2267 19.24 36.92 18.72C36.6133 18.1867 36.46 17.5067 36.46 16.68V9.8H38.3V17C38.3 17.36 38.3733 17.6667 38.52 17.92C38.6667 18.1733 38.86 18.36 39.1 18.48C39.34 18.6 39.5933 18.66 39.86 18.66C40.1267 18.66 40.38 18.6 40.62 18.48C40.86 18.3467 41.0533 18.16 41.2 17.92C41.36 17.6667 41.44 17.36 41.44 17V13.04C41.44 12.2533 41.5867 11.6067 41.88 11.1C42.1733 10.58 42.5733 10.1933 43.08 9.94C43.5867 9.68667 44.16 9.56 44.8 9.56C45.44 9.56 46.0133 9.68667 46.52 9.94C47.0267 10.1933 47.4267 10.58 47.72 11.1C48.0133 11.6067 48.16 12.2533 48.16 13.04V17C48.16 17.36 48.2333 17.6667 48.38 17.92C48.5267 18.16 48.72 18.3467 48.96 18.48C49.2 18.6 49.46 18.66 49.74 18.66C50.02 18.66 50.2733 18.6 50.5 18.48C50.7267 18.3467 50.9133 18.16 51.06 17.92C51.2067 17.6667 51.28 17.36 51.28 17V9.8H53.14V16.68C53.14 17.5067 52.9867 18.1867 52.68 18.72C52.3733 19.24 51.96 19.6267 51.44 19.88C50.9333 20.12 50.3667 20.24 49.74 20.24C49.1267 20.24 48.56 20.12 48.04 19.88C47.52 19.6267 47.1 19.24 46.78 18.72C46.4733 18.1867 46.32 17.5067 46.32 16.68V12.76C46.32 12.3867 46.2467 12.08 46.1 11.84C45.9533 11.6 45.7667 11.4267 45.54 11.32C45.3133 11.2 45.0667 11.14 44.8 11.14C44.5333 11.14 44.28 11.2 44.04 11.32C43.8133 11.4267 43.6267 11.6 43.48 11.84C43.3467 12.08 43.28 12.3867 43.28 12.76V16.68C43.28 17.5067 43.12 18.1867 42.8 18.72C42.4933 19.24 42.08 19.6267 41.56 19.88C41.0533 20.12 40.4933 20.24 39.88 20.24ZM60.8694 20.24C59.8294 20.24 58.9094 20.0067 58.1094 19.54C57.3094 19.06 56.676 18.42 56.2094 17.62C55.7427 16.8067 55.5094 15.9 55.5094 14.9C55.5094 13.9 55.7427 13 56.2094 12.2C56.676 11.3867 57.3094 10.7467 58.1094 10.28C58.9094 9.8 59.8294 9.56 60.8694 9.56C61.9094 9.56 62.8294 9.8 63.6294 10.28C64.4427 10.7467 65.076 11.38 65.5294 12.18C65.996 12.98 66.2294 13.8867 66.2294 14.9C66.2294 15.9 65.996 16.8067 65.5294 17.62C65.076 18.42 64.4427 19.06 63.6294 19.54C62.8294 20.0067 61.9094 20.24 60.8694 20.24ZM60.8694 18.66C61.576 18.66 62.1894 18.4933 62.7094 18.16C63.2294 17.8267 63.636 17.38 63.9294 16.82C64.2227 16.2467 64.3694 15.6067 64.3694 14.9C64.3694 14.1933 64.2227 13.56 63.9294 13C63.636 12.4267 63.2294 11.9733 62.7094 11.64C62.1894 11.3067 61.576 11.14 60.8694 11.14C60.176 11.14 59.5627 11.3067 59.0294 11.64C58.5094 11.9733 58.1027 12.4267 57.8094 13C57.516 13.56 57.3694 14.1933 57.3694 14.9C57.3694 15.6067 57.516 16.2467 57.8094 16.82C58.1027 17.38 58.5094 17.8267 59.0294 18.16C59.5627 18.4933 60.176 18.66 60.8694 18.66ZM68.5289 20V12.7C68.5289 11.7933 68.7822 11.0867 69.2889 10.58C69.8089 10.06 70.5222 9.8 71.4289 9.8H73.5289V11.38H71.7689C71.3289 11.38 70.9822 11.5067 70.7289 11.76C70.4889 12.0133 70.3689 12.3667 70.3689 12.82V20H68.5289ZM75.2295 20V5.4H77.0695V20H75.2295ZM84.6952 20.24C83.9218 20.24 83.2152 20.12 82.5752 19.88C81.9352 19.6267 81.3818 19.26 80.9152 18.78C80.4485 18.3 80.0818 17.7267 79.8152 17.06C79.5618 16.38 79.4352 15.62 79.4352 14.78C79.4352 13.7133 79.6485 12.7933 80.0752 12.02C80.5152 11.2333 81.1085 10.6267 81.8552 10.2C82.6152 9.77333 83.4618 9.56 84.3952 9.56C84.9152 9.56 85.4085 9.64667 85.8752 9.82C86.3552 9.99333 86.7818 10.2333 87.1552 10.54C87.5285 10.8467 87.8218 11.2067 88.0352 11.62H88.0752V5.4H89.9152V14.84C89.9152 15.9733 89.6818 16.9467 89.2152 17.76C88.7618 18.56 88.1418 19.1733 87.3552 19.6C86.5818 20.0267 85.6952 20.24 84.6952 20.24ZM84.6952 18.66C85.3218 18.66 85.8885 18.5067 86.3952 18.2C86.9018 17.8933 87.3018 17.46 87.5952 16.9C87.9018 16.34 88.0552 15.68 88.0552 14.92C88.0552 14.1467 87.9018 13.48 87.5952 12.92C87.3018 12.3467 86.9018 11.9067 86.3952 11.6C85.8885 11.2933 85.3152 11.14 84.6752 11.14C84.0485 11.14 83.4752 11.3 82.9552 11.62C82.4485 11.94 82.0418 12.38 81.7352 12.94C81.4418 13.5 81.2952 14.1533 81.2952 14.9C81.2952 15.6733 81.4485 16.34 81.7552 16.9C82.0618 17.46 82.4685 17.8933 82.9752 18.2C83.4952 18.5067 84.0685 18.66 84.6952 18.66ZM43.42 40C42.66 40 42 39.84 41.44 39.52C40.8933 39.1867 40.4667 38.74 40.16 38.18C39.8667 37.6067 39.72 36.9667 39.72 36.26V27.7H35.46V26H45.9V27.7H41.64V36.5C41.64 37.02 41.8 37.4533 42.12 37.8C42.4533 38.1333 42.8933 38.3 43.44 38.3H44.36V40H43.42ZM53.8817 40.26C52.7751 40.26 51.7751 40.0733 50.8817 39.7C49.9884 39.3133 49.2217 38.7867 48.5817 38.12C47.9551 37.4533 47.4684 36.68 47.1217 35.8C46.7751 34.92 46.6017 33.98 46.6017 32.98C46.6017 31.9933 46.7751 31.06 47.1217 30.18C47.4684 29.3 47.9551 28.5267 48.5817 27.86C49.2217 27.1933 49.9884 26.6733 50.8817 26.3C51.7751 25.9267 52.7751 25.74 53.8817 25.74C54.9884 25.74 55.9884 25.9267 56.8817 26.3C57.7751 26.6733 58.5351 27.1933 59.1617 27.86C59.8017 28.5267 60.2951 29.3 60.6417 30.18C60.9884 31.06 61.1617 32 61.1617 33C61.1617 33.9867 60.9884 34.92 60.6417 35.8C60.2951 36.68 59.8017 37.4533 59.1617 38.12C58.5351 38.7867 57.7751 39.3133 56.8817 39.7C55.9884 40.0733 54.9884 40.26 53.8817 40.26ZM53.8817 38.56C54.6417 38.56 55.3484 38.42 56.0017 38.14C56.6551 37.86 57.2217 37.4667 57.7017 36.96C58.1951 36.4533 58.5751 35.8667 58.8417 35.2C59.1084 34.52 59.2417 33.78 59.2417 32.98C59.2417 32.1933 59.1084 31.46 58.8417 30.78C58.5751 30.1 58.2017 29.5133 57.7217 29.02C57.2417 28.5133 56.6684 28.1267 56.0017 27.86C55.3484 27.58 54.6417 27.44 53.8817 27.44C53.1084 27.44 52.3951 27.58 51.7417 27.86C51.0884 28.1267 50.5217 28.5133 50.0417 29.02C49.5617 29.5133 49.1884 30.1 48.9217 30.78C48.6551 31.46 48.5217 32.2 48.5217 33C48.5217 33.7867 48.6551 34.52 48.9217 35.2C49.1884 35.8667 49.5617 36.4533 50.0417 36.96C50.5217 37.4667 51.0884 37.86 51.7417 38.14C52.3951 38.42 53.1084 38.56 53.8817 38.56ZM63.5122 40V26H67.9922C69.4855 26 70.7722 26.3 71.8522 26.9C72.9455 27.5 73.7922 28.3267 74.3922 29.38C74.9922 30.4333 75.2922 31.64 75.2922 33C75.2922 34.36 74.9922 35.5667 74.3922 36.62C73.7922 37.6733 72.9455 38.5 71.8522 39.1C70.7722 39.7 69.4855 40 67.9922 40H63.5122ZM65.4322 38.3H68.0122C69.0522 38.3 69.9722 38.0867 70.7722 37.66C71.5855 37.2333 72.2255 36.6267 72.6922 35.84C73.1589 35.04 73.3922 34.0933 73.3922 33C73.3922 31.8933 73.1589 30.9467 72.6922 30.16C72.2255 29.3733 71.5855 28.7667 70.7722 28.34C69.9722 27.9133 69.0522 27.7 68.0122 27.7H65.4322V38.3ZM75.5673 40L80.3273 27.34C80.5407 26.7933 80.834 26.3933 81.2073 26.14C81.5807 25.8867 82.014 25.76 82.5073 25.76C83.0007 25.76 83.434 25.8867 83.8073 26.14C84.194 26.38 84.4873 26.7733 84.6873 27.32L89.4673 40H87.3673L86.1473 36.62H78.8273L77.5873 40H75.5673ZM79.4273 34.92H85.5673L83.0673 27.98C83.0007 27.8067 82.9273 27.6733 82.8473 27.58C82.7673 27.4867 82.654 27.44 82.5073 27.44C82.374 27.44 82.2673 27.4867 82.1873 27.58C82.1073 27.6733 82.0407 27.8067 81.9873 27.98L79.4273 34.92ZM93.7548 40V35.94C92.7815 35.8067 91.9548 35.4933 91.2748 35C90.5948 34.4933 90.0748 33.84 89.7148 33.04C89.3548 32.24 89.1748 31.34 89.1748 30.34V26H91.0948V30.5C91.0948 31.1933 91.2348 31.8333 91.5148 32.42C91.8082 32.9933 92.2215 33.46 92.7548 33.82C93.3015 34.1667 93.9615 34.34 94.7348 34.34C95.5082 34.34 96.1615 34.1667 96.6948 33.82C97.2415 33.46 97.6548 32.9933 97.9348 32.42C98.2148 31.8333 98.3548 31.1933 98.3548 30.5V26H100.275V30.34C100.275 31.34 100.095 32.24 99.7348 33.04C99.3748 33.84 98.8482 34.4933 98.1548 35C97.4748 35.5067 96.6482 35.82 95.6748 35.94V40H93.7548Z" fill="white"/>
<ellipse cx="14" cy="13.3438" rx="14" ry="13.3438" fill="#1629D4"/>
<ellipse cx="14" cy="29.5469" rx="14" ry="13.3438" fill="#DEF83E"/>
</svg>
